%TF.GenerationSoftware,KiCad,Pcbnew,8.0.0-8.0.0-1~ubuntu22.04.1*%
%TF.CreationDate,2024-03-06T20:03:24+01:00*%
%TF.ProjectId,P1,50312e6b-6963-4616-945f-706362585858,rev?*%
%TF.SameCoordinates,Original*%
%TF.FileFunction,Legend,Bot*%
%TF.FilePolarity,Positive*%
%FSLAX46Y46*%
G04 Gerber Fmt 4.6, Leading zero omitted, Abs format (unit mm)*
G04 Created by KiCad (PCBNEW 8.0.0-8.0.0-1~ubuntu22.04.1) date 2024-03-06 20:03:24*
%MOMM*%
%LPD*%
G01*
G04 APERTURE LIST*
%ADD10C,0.300000*%
G04 APERTURE END LIST*
D10*
X149802856Y-48900996D02*
X149802856Y-47400996D01*
X149802856Y-47400996D02*
X149231427Y-47400996D01*
X149231427Y-47400996D02*
X149088570Y-47472425D01*
X149088570Y-47472425D02*
X149017141Y-47543853D01*
X149017141Y-47543853D02*
X148945713Y-47686710D01*
X148945713Y-47686710D02*
X148945713Y-47900996D01*
X148945713Y-47900996D02*
X149017141Y-48043853D01*
X149017141Y-48043853D02*
X149088570Y-48115282D01*
X149088570Y-48115282D02*
X149231427Y-48186710D01*
X149231427Y-48186710D02*
X149802856Y-48186710D01*
X147517141Y-48900996D02*
X148374284Y-48900996D01*
X147945713Y-48900996D02*
X147945713Y-47400996D01*
X147945713Y-47400996D02*
X148088570Y-47615282D01*
X148088570Y-47615282D02*
X148231427Y-47758139D01*
X148231427Y-47758139D02*
X148374284Y-47829568D01*
X145731428Y-48900996D02*
X145731428Y-47900996D01*
X145731428Y-47400996D02*
X145802856Y-47472425D01*
X145802856Y-47472425D02*
X145731428Y-47543853D01*
X145731428Y-47543853D02*
X145659999Y-47472425D01*
X145659999Y-47472425D02*
X145731428Y-47400996D01*
X145731428Y-47400996D02*
X145731428Y-47543853D01*
X145017142Y-47900996D02*
X145017142Y-48900996D01*
X145017142Y-48043853D02*
X144945713Y-47972425D01*
X144945713Y-47972425D02*
X144802856Y-47900996D01*
X144802856Y-47900996D02*
X144588570Y-47900996D01*
X144588570Y-47900996D02*
X144445713Y-47972425D01*
X144445713Y-47972425D02*
X144374285Y-48115282D01*
X144374285Y-48115282D02*
X144374285Y-48900996D01*
X143874284Y-47900996D02*
X143302856Y-47900996D01*
X143659999Y-47400996D02*
X143659999Y-48686710D01*
X143659999Y-48686710D02*
X143588570Y-48829568D01*
X143588570Y-48829568D02*
X143445713Y-48900996D01*
X143445713Y-48900996D02*
X143302856Y-48900996D01*
X142231427Y-48829568D02*
X142374284Y-48900996D01*
X142374284Y-48900996D02*
X142659999Y-48900996D01*
X142659999Y-48900996D02*
X142802856Y-48829568D01*
X142802856Y-48829568D02*
X142874284Y-48686710D01*
X142874284Y-48686710D02*
X142874284Y-48115282D01*
X142874284Y-48115282D02*
X142802856Y-47972425D01*
X142802856Y-47972425D02*
X142659999Y-47900996D01*
X142659999Y-47900996D02*
X142374284Y-47900996D01*
X142374284Y-47900996D02*
X142231427Y-47972425D01*
X142231427Y-47972425D02*
X142159999Y-48115282D01*
X142159999Y-48115282D02*
X142159999Y-48258139D01*
X142159999Y-48258139D02*
X142874284Y-48400996D01*
X141517142Y-48900996D02*
X141517142Y-47900996D01*
X141517142Y-48186710D02*
X141445713Y-48043853D01*
X141445713Y-48043853D02*
X141374285Y-47972425D01*
X141374285Y-47972425D02*
X141231427Y-47900996D01*
X141231427Y-47900996D02*
X141088570Y-47900996D01*
X140802856Y-47900996D02*
X140231428Y-47900996D01*
X140588571Y-48900996D02*
X140588571Y-47615282D01*
X140588571Y-47615282D02*
X140517142Y-47472425D01*
X140517142Y-47472425D02*
X140374285Y-47400996D01*
X140374285Y-47400996D02*
X140231428Y-47400996D01*
X139088571Y-48900996D02*
X139088571Y-48115282D01*
X139088571Y-48115282D02*
X139159999Y-47972425D01*
X139159999Y-47972425D02*
X139302856Y-47900996D01*
X139302856Y-47900996D02*
X139588571Y-47900996D01*
X139588571Y-47900996D02*
X139731428Y-47972425D01*
X139088571Y-48829568D02*
X139231428Y-48900996D01*
X139231428Y-48900996D02*
X139588571Y-48900996D01*
X139588571Y-48900996D02*
X139731428Y-48829568D01*
X139731428Y-48829568D02*
X139802856Y-48686710D01*
X139802856Y-48686710D02*
X139802856Y-48543853D01*
X139802856Y-48543853D02*
X139731428Y-48400996D01*
X139731428Y-48400996D02*
X139588571Y-48329568D01*
X139588571Y-48329568D02*
X139231428Y-48329568D01*
X139231428Y-48329568D02*
X139088571Y-48258139D01*
X137731428Y-48829568D02*
X137874285Y-48900996D01*
X137874285Y-48900996D02*
X138159999Y-48900996D01*
X138159999Y-48900996D02*
X138302856Y-48829568D01*
X138302856Y-48829568D02*
X138374285Y-48758139D01*
X138374285Y-48758139D02*
X138445713Y-48615282D01*
X138445713Y-48615282D02*
X138445713Y-48186710D01*
X138445713Y-48186710D02*
X138374285Y-48043853D01*
X138374285Y-48043853D02*
X138302856Y-47972425D01*
X138302856Y-47972425D02*
X138159999Y-47900996D01*
X138159999Y-47900996D02*
X137874285Y-47900996D01*
X137874285Y-47900996D02*
X137731428Y-47972425D01*
X136517142Y-48829568D02*
X136659999Y-48900996D01*
X136659999Y-48900996D02*
X136945714Y-48900996D01*
X136945714Y-48900996D02*
X137088571Y-48829568D01*
X137088571Y-48829568D02*
X137159999Y-48686710D01*
X137159999Y-48686710D02*
X137159999Y-48115282D01*
X137159999Y-48115282D02*
X137088571Y-47972425D01*
X137088571Y-47972425D02*
X136945714Y-47900996D01*
X136945714Y-47900996D02*
X136659999Y-47900996D01*
X136659999Y-47900996D02*
X136517142Y-47972425D01*
X136517142Y-47972425D02*
X136445714Y-48115282D01*
X136445714Y-48115282D02*
X136445714Y-48258139D01*
X136445714Y-48258139D02*
X137159999Y-48400996D01*
X145302856Y-50315912D02*
X144945713Y-51315912D01*
X144945713Y-51315912D02*
X144588570Y-50315912D01*
X143231427Y-51315912D02*
X144088570Y-51315912D01*
X143659999Y-51315912D02*
X143659999Y-49815912D01*
X143659999Y-49815912D02*
X143802856Y-50030198D01*
X143802856Y-50030198D02*
X143945713Y-50173055D01*
X143945713Y-50173055D02*
X144088570Y-50244484D01*
X142588571Y-51173055D02*
X142517142Y-51244484D01*
X142517142Y-51244484D02*
X142588571Y-51315912D01*
X142588571Y-51315912D02*
X142659999Y-51244484D01*
X142659999Y-51244484D02*
X142588571Y-51173055D01*
X142588571Y-51173055D02*
X142588571Y-51315912D01*
X141588570Y-49815912D02*
X141445713Y-49815912D01*
X141445713Y-49815912D02*
X141302856Y-49887341D01*
X141302856Y-49887341D02*
X141231428Y-49958769D01*
X141231428Y-49958769D02*
X141159999Y-50101626D01*
X141159999Y-50101626D02*
X141088570Y-50387341D01*
X141088570Y-50387341D02*
X141088570Y-50744484D01*
X141088570Y-50744484D02*
X141159999Y-51030198D01*
X141159999Y-51030198D02*
X141231428Y-51173055D01*
X141231428Y-51173055D02*
X141302856Y-51244484D01*
X141302856Y-51244484D02*
X141445713Y-51315912D01*
X141445713Y-51315912D02*
X141588570Y-51315912D01*
X141588570Y-51315912D02*
X141731428Y-51244484D01*
X141731428Y-51244484D02*
X141802856Y-51173055D01*
X141802856Y-51173055D02*
X141874285Y-51030198D01*
X141874285Y-51030198D02*
X141945713Y-50744484D01*
X141945713Y-50744484D02*
X141945713Y-50387341D01*
X141945713Y-50387341D02*
X141874285Y-50101626D01*
X141874285Y-50101626D02*
X141802856Y-49958769D01*
X141802856Y-49958769D02*
X141731428Y-49887341D01*
X141731428Y-49887341D02*
X141588570Y-49815912D01*
X148195714Y-53730828D02*
X148195714Y-52230828D01*
X147552857Y-53730828D02*
X147552857Y-52945114D01*
X147552857Y-52945114D02*
X147624285Y-52802257D01*
X147624285Y-52802257D02*
X147767142Y-52730828D01*
X147767142Y-52730828D02*
X147981428Y-52730828D01*
X147981428Y-52730828D02*
X148124285Y-52802257D01*
X148124285Y-52802257D02*
X148195714Y-52873685D01*
X146195714Y-53730828D02*
X146195714Y-52945114D01*
X146195714Y-52945114D02*
X146267142Y-52802257D01*
X146267142Y-52802257D02*
X146409999Y-52730828D01*
X146409999Y-52730828D02*
X146695714Y-52730828D01*
X146695714Y-52730828D02*
X146838571Y-52802257D01*
X146195714Y-53659400D02*
X146338571Y-53730828D01*
X146338571Y-53730828D02*
X146695714Y-53730828D01*
X146695714Y-53730828D02*
X146838571Y-53659400D01*
X146838571Y-53659400D02*
X146909999Y-53516542D01*
X146909999Y-53516542D02*
X146909999Y-53373685D01*
X146909999Y-53373685D02*
X146838571Y-53230828D01*
X146838571Y-53230828D02*
X146695714Y-53159400D01*
X146695714Y-53159400D02*
X146338571Y-53159400D01*
X146338571Y-53159400D02*
X146195714Y-53087971D01*
X145267142Y-53730828D02*
X145409999Y-53659400D01*
X145409999Y-53659400D02*
X145481428Y-53516542D01*
X145481428Y-53516542D02*
X145481428Y-52230828D01*
X144052857Y-53730828D02*
X144052857Y-52945114D01*
X144052857Y-52945114D02*
X144124285Y-52802257D01*
X144124285Y-52802257D02*
X144267142Y-52730828D01*
X144267142Y-52730828D02*
X144552857Y-52730828D01*
X144552857Y-52730828D02*
X144695714Y-52802257D01*
X144052857Y-53659400D02*
X144195714Y-53730828D01*
X144195714Y-53730828D02*
X144552857Y-53730828D01*
X144552857Y-53730828D02*
X144695714Y-53659400D01*
X144695714Y-53659400D02*
X144767142Y-53516542D01*
X144767142Y-53516542D02*
X144767142Y-53373685D01*
X144767142Y-53373685D02*
X144695714Y-53230828D01*
X144695714Y-53230828D02*
X144552857Y-53159400D01*
X144552857Y-53159400D02*
X144195714Y-53159400D01*
X144195714Y-53159400D02*
X144052857Y-53087971D01*
X142695714Y-53659400D02*
X142838571Y-53730828D01*
X142838571Y-53730828D02*
X143124285Y-53730828D01*
X143124285Y-53730828D02*
X143267142Y-53659400D01*
X143267142Y-53659400D02*
X143338571Y-53587971D01*
X143338571Y-53587971D02*
X143409999Y-53445114D01*
X143409999Y-53445114D02*
X143409999Y-53016542D01*
X143409999Y-53016542D02*
X143338571Y-52873685D01*
X143338571Y-52873685D02*
X143267142Y-52802257D01*
X143267142Y-52802257D02*
X143124285Y-52730828D01*
X143124285Y-52730828D02*
X142838571Y-52730828D01*
X142838571Y-52730828D02*
X142695714Y-52802257D01*
X142124285Y-53659400D02*
X141981428Y-53730828D01*
X141981428Y-53730828D02*
X141695714Y-53730828D01*
X141695714Y-53730828D02*
X141552857Y-53659400D01*
X141552857Y-53659400D02*
X141481428Y-53516542D01*
X141481428Y-53516542D02*
X141481428Y-53445114D01*
X141481428Y-53445114D02*
X141552857Y-53302257D01*
X141552857Y-53302257D02*
X141695714Y-53230828D01*
X141695714Y-53230828D02*
X141910000Y-53230828D01*
X141910000Y-53230828D02*
X142052857Y-53159400D01*
X142052857Y-53159400D02*
X142124285Y-53016542D01*
X142124285Y-53016542D02*
X142124285Y-52945114D01*
X142124285Y-52945114D02*
X142052857Y-52802257D01*
X142052857Y-52802257D02*
X141910000Y-52730828D01*
X141910000Y-52730828D02*
X141695714Y-52730828D01*
X141695714Y-52730828D02*
X141552857Y-52802257D01*
X140838571Y-53587971D02*
X140767142Y-53659400D01*
X140767142Y-53659400D02*
X140838571Y-53730828D01*
X140838571Y-53730828D02*
X140909999Y-53659400D01*
X140909999Y-53659400D02*
X140838571Y-53587971D01*
X140838571Y-53587971D02*
X140838571Y-53730828D01*
X140124285Y-53730828D02*
X140124285Y-52230828D01*
X139481428Y-53730828D02*
X139481428Y-52945114D01*
X139481428Y-52945114D02*
X139552856Y-52802257D01*
X139552856Y-52802257D02*
X139695713Y-52730828D01*
X139695713Y-52730828D02*
X139909999Y-52730828D01*
X139909999Y-52730828D02*
X140052856Y-52802257D01*
X140052856Y-52802257D02*
X140124285Y-52873685D01*
X138124285Y-52730828D02*
X138124285Y-53730828D01*
X138767142Y-52730828D02*
X138767142Y-53516542D01*
X138767142Y-53516542D02*
X138695713Y-53659400D01*
X138695713Y-53659400D02*
X138552856Y-53730828D01*
X138552856Y-53730828D02*
X138338570Y-53730828D01*
X138338570Y-53730828D02*
X138195713Y-53659400D01*
X138195713Y-53659400D02*
X138124285Y-53587971D01*
M02*
