%TF.GenerationSoftware,KiCad,Pcbnew,8.0.0-8.0.0-1~ubuntu22.04.1*%
%TF.CreationDate,2024-03-06T20:03:24+01:00*%
%TF.ProjectId,P1,50312e6b-6963-4616-945f-706362585858,rev?*%
%TF.SameCoordinates,Original*%
%TF.FileFunction,Copper,L1,Top*%
%TF.FilePolarity,Positive*%
%FSLAX46Y46*%
G04 Gerber Fmt 4.6, Leading zero omitted, Abs format (unit mm)*
G04 Created by KiCad (PCBNEW 8.0.0-8.0.0-1~ubuntu22.04.1) date 2024-03-06 20:03:24*
%MOMM*%
%LPD*%
G01*
G04 APERTURE LIST*
%TA.AperFunction,ComponentPad*%
%ADD10R,1.050000X1.500000*%
%TD*%
%TA.AperFunction,ComponentPad*%
%ADD11O,1.050000X1.500000*%
%TD*%
%TA.AperFunction,ComponentPad*%
%ADD12R,1.520000X1.520000*%
%TD*%
%TA.AperFunction,ComponentPad*%
%ADD13C,1.520000*%
%TD*%
%TA.AperFunction,ComponentPad*%
%ADD14O,1.700000X1.700000*%
%TD*%
%TA.AperFunction,ComponentPad*%
%ADD15R,1.700000X1.700000*%
%TD*%
%TA.AperFunction,ComponentPad*%
%ADD16R,2.200000X2.200000*%
%TD*%
%TA.AperFunction,ComponentPad*%
%ADD17O,2.200000X2.200000*%
%TD*%
%TA.AperFunction,ComponentPad*%
%ADD18C,2.400000*%
%TD*%
%TA.AperFunction,ComponentPad*%
%ADD19O,2.400000X2.400000*%
%TD*%
%TA.AperFunction,ComponentPad*%
%ADD20R,1.600000X1.600000*%
%TD*%
%TA.AperFunction,ComponentPad*%
%ADD21C,1.600000*%
%TD*%
%TA.AperFunction,ViaPad*%
%ADD22C,0.600000*%
%TD*%
%TA.AperFunction,Conductor*%
%ADD23C,1.000000*%
%TD*%
G04 APERTURE END LIST*
D10*
%TO.P,Q1,1,C*%
%TO.N,Net-(Q1-C)*%
X145200000Y-63210000D03*
D11*
%TO.P,Q1,2,B*%
%TO.N,Net-(Q1-B)*%
X146470000Y-63210000D03*
%TO.P,Q1,3,E*%
%TO.N,GND*%
X147740000Y-63210000D03*
%TD*%
D12*
%TO.P,J1,1*%
%TO.N,+5V*%
X146400000Y-33400000D03*
D13*
%TO.P,J1,2*%
X147420000Y-30860000D03*
%TO.P,J1,3*%
%TO.N,GND*%
X148440000Y-33400000D03*
%TO.P,J1,4*%
%TO.N,unconnected-(J1-Pad4)*%
X149460000Y-30860000D03*
%TO.P,J1,5*%
%TO.N,Net-(J1-Pad5)*%
X150480000Y-33400000D03*
%TO.P,J1,6*%
%TO.N,GND*%
X151500000Y-30860000D03*
%TD*%
D14*
%TO.P,J2,4,Pin_4*%
%TO.N,GND*%
X137910000Y-24070000D03*
%TO.P,J2,3,Pin_3*%
%TO.N,Net-(J2-Pin_3)*%
X135370000Y-24070000D03*
%TO.P,J2,2,Pin_2*%
%TO.N,Net-(J2-Pin_2)*%
X132830000Y-24070000D03*
D15*
%TO.P,J2,1,Pin_1*%
%TO.N,+3.3V*%
X130290000Y-24070000D03*
%TD*%
D16*
%TO.P,D1,1,K*%
%TO.N,Net-(D1-K)*%
X132650000Y-39940000D03*
D17*
%TO.P,D1,2,A*%
%TO.N,+5V*%
X142810000Y-39940000D03*
%TD*%
D18*
%TO.P,R1,1*%
%TO.N,Net-(D1-K)*%
X140730000Y-57199999D03*
D19*
%TO.P,R1,2*%
%TO.N,Net-(J1-Pad5)*%
X140730000Y-44499999D03*
%TD*%
D20*
%TO.P,C1,1*%
%TO.N,+5V*%
X134940000Y-32920000D03*
D21*
%TO.P,C1,2*%
%TO.N,GND*%
X134940000Y-30420000D03*
%TD*%
D18*
%TO.P,R3,1*%
%TO.N,Net-(J1-Pad5)*%
X146450001Y-44500000D03*
D19*
%TO.P,R3,2*%
%TO.N,Net-(Q1-B)*%
X146450001Y-57200000D03*
%TD*%
D18*
%TO.P,R2,1*%
%TO.N,+3.3V*%
X131790000Y-69580000D03*
D19*
%TO.P,R2,2*%
%TO.N,Net-(Q1-C)*%
X144490000Y-69580000D03*
%TD*%
D15*
%TO.P,U1,1,EN*%
%TO.N,unconnected-(U1-EN-Pad1)*%
X131815000Y-43890000D03*
D14*
%TO.P,U1,2,IO2*%
%TO.N,unconnected-(U1-IO2-Pad2)*%
X131815000Y-46430000D03*
%TO.P,U1,3,IO4*%
%TO.N,unconnected-(U1-IO4-Pad3)*%
X131815000Y-48970000D03*
%TO.P,U1,4,IO12*%
%TO.N,unconnected-(U1-IO12-Pad4)*%
X131815000Y-51510000D03*
%TO.P,U1,5,IO13*%
%TO.N,unconnected-(U1-IO13-Pad5)*%
X131815000Y-54050000D03*
%TO.P,U1,6,IO11*%
%TO.N,unconnected-(U1-IO11-Pad6)*%
X131815000Y-56590000D03*
%TO.P,U1,7,IO10*%
%TO.N,unconnected-(U1-IO10-Pad7)*%
X131815000Y-59130000D03*
%TO.P,U1,8,3.3V*%
%TO.N,+3.3V*%
X131815000Y-61670000D03*
D15*
%TO.P,U1,9,IO1*%
%TO.N,unconnected-(U1-IO1-Pad9)*%
X134355000Y-43890000D03*
D14*
%TO.P,U1,10,IO3*%
%TO.N,unconnected-(U1-IO3-Pad10)*%
X134355000Y-46430000D03*
%TO.P,U1,11,IO5*%
%TO.N,unconnected-(U1-IO5-Pad11)*%
X134355000Y-48970000D03*
%TO.P,U1,12,IO6*%
%TO.N,unconnected-(U1-IO6-Pad12)*%
X134355000Y-51510000D03*
%TO.P,U1,13,IO7*%
%TO.N,unconnected-(U1-IO7-Pad13)*%
X134355000Y-54050000D03*
%TO.P,U1,14,IO8*%
%TO.N,unconnected-(U1-IO8-Pad14)*%
X134355000Y-56590000D03*
%TO.P,U1,15,IO9*%
%TO.N,unconnected-(U1-IO9-Pad15)*%
X134355000Y-59130000D03*
%TO.P,U1,16,IO14*%
%TO.N,unconnected-(U1-IO14-Pad16)*%
X134355000Y-61670000D03*
D15*
%TO.P,U1,17,IO33*%
%TO.N,unconnected-(U1-IO33-Pad17)*%
X151715000Y-44070000D03*
D14*
%TO.P,U1,18,IO37*%
%TO.N,unconnected-(U1-IO37-Pad18)*%
X151715000Y-46610000D03*
%TO.P,U1,19,IO38*%
%TO.N,unconnected-(U1-IO38-Pad19)*%
X151715000Y-49150000D03*
%TO.P,U1,20,IO34*%
%TO.N,unconnected-(U1-IO34-Pad20)*%
X151715000Y-51690000D03*
%TO.P,U1,21,IO21*%
%TO.N,unconnected-(U1-IO21-Pad21)*%
X151715000Y-54230000D03*
%TO.P,U1,22,IO17*%
%TO.N,unconnected-(U1-IO17-Pad22)*%
X151715000Y-56770000D03*
%TO.P,U1,23,GND*%
%TO.N,GND*%
X151715000Y-59310000D03*
%TO.P,U1,24,IO15*%
%TO.N,unconnected-(U1-IO15-Pad24)*%
X151715000Y-61850000D03*
D15*
%TO.P,U1,25,IO43_/_TX*%
%TO.N,unconnected-(U1-IO43_{slash}_TX-Pad25)*%
X154255000Y-44070000D03*
D14*
%TO.P,U1,26,IO44_/_RX*%
%TO.N,Net-(Q1-C)*%
X154255000Y-46610000D03*
%TO.P,U1,27,IO36_/_SCL*%
%TO.N,Net-(J2-Pin_2)*%
X154255000Y-49150000D03*
%TO.P,U1,28,IO35_/_SDA*%
%TO.N,Net-(J2-Pin_3)*%
X154255000Y-51690000D03*
%TO.P,U1,29,IO18*%
%TO.N,unconnected-(U1-IO18-Pad29)*%
X154255000Y-54230000D03*
%TO.P,U1,30,IO16*%
%TO.N,unconnected-(U1-IO16-Pad30)*%
X154255000Y-56770000D03*
%TO.P,U1,31,GND*%
%TO.N,GND*%
X154255000Y-59310000D03*
%TO.P,U1,32,VBUS*%
%TO.N,Net-(D1-K)*%
X154255000Y-61850000D03*
%TD*%
D22*
%TO.N,Net-(J2-Pin_3)*%
X157690000Y-40940000D03*
%TO.N,Net-(J2-Pin_2)*%
X146700000Y-38090000D03*
%TD*%
D23*
%TO.N,+3.3V*%
X130290000Y-24070000D02*
X129310000Y-25050000D01*
X129310000Y-25050000D02*
X129310000Y-60810000D01*
X129310000Y-60810000D02*
X130170000Y-61670000D01*
X130170000Y-61670000D02*
X131815000Y-61670000D01*
%TO.N,Net-(Q1-C)*%
X146510000Y-66770000D02*
X145200000Y-65460000D01*
X153370000Y-66770000D02*
X146510000Y-66770000D01*
X156770000Y-63370000D02*
X153370000Y-66770000D01*
X155650000Y-46610000D02*
X156770000Y-47730000D01*
X156770000Y-47730000D02*
X156770000Y-63370000D01*
X154255000Y-46610000D02*
X155650000Y-46610000D01*
X145200000Y-63210000D02*
X145200000Y-65460000D01*
X145200000Y-65460000D02*
X145200000Y-68870000D01*
X145200000Y-68870000D02*
X144490000Y-69580000D01*
%TO.N,Net-(J2-Pin_3)*%
X157690000Y-40940000D02*
X157690000Y-26790000D01*
X156890000Y-25990000D02*
X135880000Y-25990000D01*
X135370000Y-25380000D02*
X135370000Y-24070000D01*
X157690000Y-26790000D02*
X156890000Y-25990000D01*
X135880000Y-25990000D02*
X135320000Y-25430000D01*
X135320000Y-25430000D02*
X135370000Y-25380000D01*
%TO.N,Net-(D1-K)*%
X137110000Y-41120000D02*
X137110000Y-53579999D01*
X135930000Y-39940000D02*
X137110000Y-41120000D01*
X132650000Y-39940000D02*
X135930000Y-39940000D01*
X137110000Y-53579999D02*
X140730000Y-57199999D01*
%TO.N,Net-(J1-Pad5)*%
X150560000Y-33480000D02*
X150560000Y-37230000D01*
X146450001Y-44500000D02*
X140730000Y-44500000D01*
X150560000Y-37230000D02*
X146450001Y-41339999D01*
X150480000Y-33400000D02*
X150560000Y-33480000D01*
X146450001Y-41339999D02*
X146450001Y-44500000D01*
%TO.N,Net-(Q1-B)*%
X146470000Y-63210000D02*
X146470000Y-57219999D01*
X146470000Y-57219999D02*
X146450001Y-57200000D01*
%TO.N,+3.3V*%
X131790000Y-61695000D02*
X131815000Y-61670000D01*
X131790000Y-69580000D02*
X131790000Y-61695000D01*
%TO.N,Net-(J2-Pin_2)*%
X146620000Y-38090000D02*
X146700000Y-38090000D01*
X145440000Y-36910000D02*
X146620000Y-38090000D01*
X135360000Y-36910000D02*
X145440000Y-36910000D01*
X132830000Y-34380000D02*
X135360000Y-36910000D01*
X146700000Y-38090000D02*
X146700000Y-38170000D01*
X146700000Y-38170000D02*
X146660000Y-38130000D01*
X132830000Y-24070000D02*
X132830000Y-34380000D01*
%TD*%
M02*
