M48
; DRILL file {KiCad 8.0.0-8.0.0-1~ubuntu22.04.1} date 2024-03-06T20:03:26+0100
; FORMAT={-:-/ absolute / inch / decimal}
; #@! TF.CreationDate,2024-03-06T20:03:26+01:00
; #@! TF.GenerationSoftware,Kicad,Pcbnew,8.0.0-8.0.0-1~ubuntu22.04.1
; #@! TF.FileFunction,Plated,1,2,PTH
FMAT,2
INCH
; #@! TA.AperFunction,Plated,PTH,ViaDrill
T1C0.0118
; #@! TA.AperFunction,Plated,PTH,ComponentDrill
T2C0.0295
; #@! TA.AperFunction,Plated,PTH,ComponentDrill
T3C0.0315
; #@! TA.AperFunction,Plated,PTH,ComponentDrill
T4C0.0354
; #@! TA.AperFunction,Plated,PTH,ComponentDrill
T5C0.0394
; #@! TA.AperFunction,Plated,PTH,ComponentDrill
T6C0.0433
; #@! TA.AperFunction,Plated,PTH,ComponentDrill
T7C0.0472
%
G90
G05
T1
X5.7756Y-1.4996
X6.2083Y-1.6118
T2
X5.7165Y-2.4886
X5.7665Y-2.4886
X5.8165Y-2.4886
T3
X5.3126Y-1.1976
X5.3126Y-1.2961
T4
X5.7638Y-1.315
X5.8039Y-1.215
X5.8441Y-1.315
X5.8843Y-1.215
X5.9244Y-1.315
X5.9646Y-1.215
T5
X5.1295Y-0.9476
X5.1896Y-1.728
X5.1896Y-1.828
X5.1896Y-1.928
X5.1896Y-2.028
X5.1896Y-2.128
X5.1896Y-2.228
X5.1896Y-2.328
X5.1896Y-2.428
X5.2295Y-0.9476
X5.2896Y-1.728
X5.2896Y-1.828
X5.2896Y-1.928
X5.2896Y-2.028
X5.2896Y-2.128
X5.2896Y-2.228
X5.2896Y-2.328
X5.2896Y-2.428
X5.3295Y-0.9476
X5.4295Y-0.9476
X5.973Y-1.735
X5.973Y-1.835
X5.973Y-1.935
X5.973Y-2.035
X5.973Y-2.135
X5.973Y-2.235
X5.973Y-2.335
X5.973Y-2.435
X6.073Y-1.735
X6.073Y-1.835
X6.073Y-1.935
X6.073Y-2.035
X6.073Y-2.135
X6.073Y-2.235
X6.073Y-2.335
X6.073Y-2.435
T6
X5.2224Y-1.5724
X5.6224Y-1.5724
T7
X5.1886Y-2.7394
X5.5406Y-1.752
X5.5406Y-2.252
X5.6886Y-2.7394
X5.7657Y-1.752
X5.7657Y-2.252
M30
